<svg width="188" height="47" viewBox="0 0 188 47" fill="none" xmlns="http://www.w3.org/2000/svg">
<path d="M0 0.45459H15.7273L26.5455 26.8182H27.0909L37.9091 0.45459H53.6364V47H41.2727V20.091H40.9091L30.5455 46.6364H23.0909L12.7273 19.9091H12.3636V47H0V0.45459Z" fill="black"/>
<path d="M72.3523 0.45459L81.8977 33.2728H82.2614L91.8068 0.45459H106.08L90.7159 47H73.4432L58.0795 0.45459H72.3523Z" fill="black"/>
<path d="M110.562 47V0.45459H130.653C134.108 0.45459 137.131 1.13641 139.722 2.50005C142.312 3.86368 144.328 5.78035 145.767 8.25005C147.206 10.7197 147.926 13.6061 147.926 16.9091C147.926 20.2425 147.184 23.1288 145.699 25.5682C144.229 28.0076 142.161 29.8864 139.494 31.2046C136.843 32.5228 133.744 33.1819 130.199 33.1819H118.199V23.3637H127.653C129.138 23.3637 130.403 23.1061 131.449 22.591C132.509 22.0607 133.32 21.3107 133.881 20.341C134.456 19.3713 134.744 18.2273 134.744 16.9091C134.744 15.5758 134.456 14.4394 133.881 13.5C133.32 12.5455 132.509 11.8182 131.449 11.3182C130.403 10.8031 129.138 10.5455 127.653 10.5455H123.199V47H110.562Z" fill="black"/>
<rect x="152" y="1" width="34.8184" height="31.4712" rx="2" fill="#FFCC33" stroke="black" stroke-width="2"/>
<path d="M163.011 8.57812C163.287 8.57812 163.511 8.80198 163.511 9.07812V24.6034C163.511 24.8796 163.287 25.1034 163.011 25.1034H159.868C159.592 25.1034 159.368 24.8796 159.368 24.6034V9.07812C159.368 8.80198 159.592 8.57812 159.868 8.57812H163.011Z" fill="black"/>
<path d="M171.975 19.0527C171.728 18.723 171.963 18.2529 172.375 18.2529H174.352C174.505 18.2529 174.65 18.323 174.745 18.4431L175.757 19.7252L177.724 21.9786L179.617 24.2863C179.885 24.6127 179.653 25.1034 179.231 25.1034H176.852C176.706 25.1034 176.567 25.0392 176.472 24.9277L174.803 22.9702L173.581 21.1974L171.975 19.0527ZM180.258 16.2699C180.258 17.9825 179.927 19.4272 179.267 20.604C178.606 21.7758 177.714 22.6647 176.592 23.2706C175.469 23.8715 174.217 24.172 172.836 24.172C171.445 24.172 170.188 23.869 169.066 23.2631C167.948 22.6522 167.059 21.7608 166.398 20.589C165.743 19.4122 165.415 17.9725 165.415 16.2699C165.415 14.5573 165.743 13.1151 166.398 11.9433C167.059 10.7665 167.948 9.87761 169.066 9.27669C170.188 8.67076 171.445 8.3678 172.836 8.3678C174.217 8.3678 175.469 8.67076 176.592 9.27669C177.714 9.87761 178.606 10.7665 179.267 11.9433C179.927 13.1151 180.258 14.5573 180.258 16.2699ZM175.995 16.2699C175.995 15.3485 175.874 14.5723 175.63 13.9413C175.392 13.3054 175.037 12.8246 174.565 12.4991C174.098 12.1686 173.522 12.0034 172.836 12.0034C172.151 12.0034 171.572 12.1686 171.1 12.4991C170.633 12.8246 170.278 13.3054 170.034 13.9413C169.796 14.5723 169.677 15.3485 169.677 16.2699C169.677 17.1913 169.796 17.97 170.034 18.606C170.278 19.2369 170.633 19.7177 171.1 20.0482C171.572 20.3737 172.151 20.5364 172.836 20.5364C173.522 20.5364 174.098 20.3737 174.565 20.0482C175.037 19.7177 175.392 19.2369 175.63 18.606C175.874 17.97 175.995 17.1913 175.995 16.2699Z" fill="black"/>
</svg>
